<mxfile host="app.diagrams.net" modified="2023-06-16T14:13:30.750Z" agent="Mozilla/5.0 (Windows NT 10.0; Win64; x64) AppleWebKit/537.36 (KHTML, like Gecko) Chrome/114.0.0.0 Safari/537.36 Edg/114.0.1823.43" etag="fMVZL2lY-ZkVv9UHPtsl" version="21.3.4" type="device">
  <diagram name="Page-1" id="b520641d-4fe3-3701-9064-5fc419738815">
    <mxGraphModel dx="1331" dy="788" grid="0" gridSize="10" guides="1" tooltips="1" connect="1" arrows="1" fold="1" page="0" pageScale="1" pageWidth="4681" pageHeight="3300" background="none" math="0" shadow="0">
      <root>
        <mxCell id="0" />
        <mxCell id="1" parent="0" />
        <mxCell id="_QG_Un_Kt5ERCxtmQ5hU-1" value="init" style="swimlane;whiteSpace=wrap;html=1;" parent="1" vertex="1">
          <mxGeometry x="110" y="70" width="470" height="360" as="geometry" />
        </mxCell>
        <mxCell id="rt-RllqqKr8ouQmhF8rc-1" style="edgeStyle=orthogonalEdgeStyle;rounded=0;orthogonalLoop=1;jettySize=auto;html=1;entryX=0.5;entryY=0;entryDx=0;entryDy=0;" edge="1" parent="_QG_Un_Kt5ERCxtmQ5hU-1" source="21ea969265ad0168-6" target="21ea969265ad0168-10">
          <mxGeometry relative="1" as="geometry" />
        </mxCell>
        <mxCell id="21ea969265ad0168-6" value="wait_user_1to0" style="swimlane;html=1;fontStyle=0;childLayout=stackLayout;horizontal=1;startSize=26;fillColor=#e0e0e0;horizontalStack=0;resizeParent=1;resizeLast=0;collapsible=1;marginBottom=0;swimlaneFillColor=#ffffff;align=center;rounded=1;shadow=0;comic=0;labelBackgroundColor=none;strokeWidth=1;fontFamily=Verdana;fontSize=12" parent="_QG_Un_Kt5ERCxtmQ5hU-1" vertex="1">
          <mxGeometry x="155" y="70" width="160" height="110" as="geometry" />
        </mxCell>
        <mxCell id="21ea969265ad0168-7" value="du: avaliar User" style="text;html=1;strokeColor=none;fillColor=none;spacingLeft=4;spacingRight=4;whiteSpace=wrap;overflow=hidden;rotatable=0;points=[[0,0.5],[1,0.5]];portConstraint=eastwest;" parent="21ea969265ad0168-6" vertex="1">
          <mxGeometry y="26" width="160" height="26" as="geometry" />
        </mxCell>
        <mxCell id="_QG_Un_Kt5ERCxtmQ5hU-10" value="User = 0" style="text;html=1;strokeColor=none;fillColor=none;align=center;verticalAlign=middle;whiteSpace=wrap;rounded=0;" parent="_QG_Un_Kt5ERCxtmQ5hU-1" vertex="1">
          <mxGeometry x="240" y="180" width="70" height="30" as="geometry" />
        </mxCell>
        <mxCell id="_QG_Un_Kt5ERCxtmQ5hU-11" value="User = 1" style="text;html=1;strokeColor=none;fillColor=none;align=center;verticalAlign=middle;whiteSpace=wrap;rounded=0;" parent="_QG_Un_Kt5ERCxtmQ5hU-1" vertex="1">
          <mxGeometry x="240" y="330" width="70" height="30" as="geometry" />
        </mxCell>
        <mxCell id="21ea969265ad0168-10" value="wait_user_0to1" style="swimlane;html=1;fontStyle=0;childLayout=stackLayout;horizontal=1;startSize=26;fillColor=#e0e0e0;horizontalStack=0;resizeParent=1;resizeLast=0;collapsible=1;marginBottom=0;swimlaneFillColor=#ffffff;align=center;rounded=1;shadow=0;comic=0;labelBackgroundColor=none;strokeWidth=1;fontFamily=Verdana;fontSize=12" parent="_QG_Un_Kt5ERCxtmQ5hU-1" vertex="1">
          <mxGeometry x="155" y="220" width="160" height="110" as="geometry" />
        </mxCell>
        <mxCell id="21ea969265ad0168-11" value="du : avaliar User" style="text;html=1;strokeColor=none;fillColor=none;spacingLeft=4;spacingRight=4;whiteSpace=wrap;overflow=hidden;rotatable=0;points=[[0,0.5],[1,0.5]];portConstraint=eastwest;" parent="21ea969265ad0168-10" vertex="1">
          <mxGeometry y="26" width="160" height="26" as="geometry" />
        </mxCell>
        <mxCell id="rt-RllqqKr8ouQmhF8rc-3" value="en: Colocar todos os LEDs &quot; Stimulus &amp;amp; Result&quot; a 1 (ligados)" style="text;html=1;strokeColor=none;fillColor=none;align=center;verticalAlign=middle;whiteSpace=wrap;rounded=0;" vertex="1" parent="_QG_Un_Kt5ERCxtmQ5hU-1">
          <mxGeometry x="65" y="30" width="340" height="30" as="geometry" />
        </mxCell>
        <mxCell id="rt-RllqqKr8ouQmhF8rc-27" style="edgeStyle=orthogonalEdgeStyle;rounded=0;orthogonalLoop=1;jettySize=auto;html=1;entryX=0;entryY=0.5;entryDx=0;entryDy=0;" edge="1" parent="_QG_Un_Kt5ERCxtmQ5hU-1" source="rt-RllqqKr8ouQmhF8rc-23" target="21ea969265ad0168-6">
          <mxGeometry relative="1" as="geometry" />
        </mxCell>
        <mxCell id="rt-RllqqKr8ouQmhF8rc-23" value="" style="shape=waypoint;sketch=0;size=6;pointerEvents=1;points=[];fillColor=none;resizable=0;rotatable=0;perimeter=centerPerimeter;snapToPoint=1;" vertex="1" parent="_QG_Un_Kt5ERCxtmQ5hU-1">
          <mxGeometry x="120" y="115" width="20" height="20" as="geometry" />
        </mxCell>
        <mxCell id="rt-RllqqKr8ouQmhF8rc-8" style="edgeStyle=orthogonalEdgeStyle;rounded=0;orthogonalLoop=1;jettySize=auto;html=1;exitX=0.5;exitY=1;exitDx=0;exitDy=0;entryX=0.5;entryY=0;entryDx=0;entryDy=0;" edge="1" parent="1" source="rt-RllqqKr8ouQmhF8rc-4" target="rt-RllqqKr8ouQmhF8rc-7">
          <mxGeometry relative="1" as="geometry" />
        </mxCell>
        <mxCell id="rt-RllqqKr8ouQmhF8rc-4" value="setup_test" style="swimlane;whiteSpace=wrap;html=1;startSize=23;" vertex="1" parent="1">
          <mxGeometry x="110" y="470" width="470" height="130" as="geometry" />
        </mxCell>
        <mxCell id="rt-RllqqKr8ouQmhF8rc-6" value="&lt;div&gt;en:&lt;/div&gt;&lt;ul&gt;&lt;li&gt;Colocar a variÃ¡vel sysclk a 0 (reset_sysclk)&lt;/li&gt;&lt;li&gt;Observar o valor de tempo a esperar introduzido pelo User (get_time)&lt;/li&gt;&lt;li&gt;Apagar os LEDs correspondentes a Result&lt;/li&gt;&lt;/ul&gt;&lt;div&gt;ex: r3 - tempo&lt;/div&gt;" style="text;html=1;strokeColor=none;fillColor=none;align=left;verticalAlign=middle;whiteSpace=wrap;rounded=0;" vertex="1" parent="rt-RllqqKr8ouQmhF8rc-4">
          <mxGeometry x="23.75" y="25" width="422.5" height="95" as="geometry" />
        </mxCell>
        <mxCell id="rt-RllqqKr8ouQmhF8rc-5" style="edgeStyle=orthogonalEdgeStyle;rounded=0;orthogonalLoop=1;jettySize=auto;html=1;entryX=0.5;entryY=0;entryDx=0;entryDy=0;" edge="1" parent="1" source="21ea969265ad0168-10" target="rt-RllqqKr8ouQmhF8rc-4">
          <mxGeometry relative="1" as="geometry" />
        </mxCell>
        <mxCell id="rt-RllqqKr8ouQmhF8rc-7" value="test" style="swimlane;whiteSpace=wrap;html=1;" vertex="1" parent="1">
          <mxGeometry x="110" y="630" width="470" height="680" as="geometry" />
        </mxCell>
        <mxCell id="rt-RllqqKr8ouQmhF8rc-32" style="edgeStyle=orthogonalEdgeStyle;rounded=0;orthogonalLoop=1;jettySize=auto;html=1;" edge="1" parent="rt-RllqqKr8ouQmhF8rc-7" source="rt-RllqqKr8ouQmhF8rc-14" target="rt-RllqqKr8ouQmhF8rc-30">
          <mxGeometry relative="1" as="geometry" />
        </mxCell>
        <mxCell id="rt-RllqqKr8ouQmhF8rc-14" value="wait_time" style="swimlane;html=1;fontStyle=0;childLayout=stackLayout;horizontal=1;startSize=26;fillColor=#e0e0e0;horizontalStack=0;resizeParent=1;resizeLast=0;collapsible=1;marginBottom=0;swimlaneFillColor=#ffffff;align=center;rounded=1;shadow=0;comic=0;labelBackgroundColor=none;strokeWidth=1;fontFamily=Verdana;fontSize=12" vertex="1" parent="rt-RllqqKr8ouQmhF8rc-7">
          <mxGeometry x="90" y="60" width="290" height="110" as="geometry" />
        </mxCell>
        <mxCell id="rt-RllqqKr8ouQmhF8rc-15" value="en: enable interrupts com TMR = SYSCLK_FREQ&lt;br&gt;du: delay (esperar o tempo definido anteriormente)" style="text;html=1;strokeColor=none;fillColor=none;spacingLeft=4;spacingRight=4;whiteSpace=wrap;overflow=hidden;rotatable=0;points=[[0,0.5],[1,0.5]];portConstraint=eastwest;" vertex="1" parent="rt-RllqqKr8ouQmhF8rc-14">
          <mxGeometry y="26" width="290" height="44" as="geometry" />
        </mxCell>
        <mxCell id="rt-RllqqKr8ouQmhF8rc-41" style="edgeStyle=orthogonalEdgeStyle;rounded=0;orthogonalLoop=1;jettySize=auto;html=1;entryX=0.5;entryY=0;entryDx=0;entryDy=0;" edge="1" parent="rt-RllqqKr8ouQmhF8rc-7" source="rt-RllqqKr8ouQmhF8rc-30" target="rt-RllqqKr8ouQmhF8rc-39">
          <mxGeometry relative="1" as="geometry" />
        </mxCell>
        <mxCell id="rt-RllqqKr8ouQmhF8rc-30" value="measure_time" style="swimlane;html=1;fontStyle=0;childLayout=stackLayout;horizontal=1;startSize=26;fillColor=#e0e0e0;horizontalStack=0;resizeParent=1;resizeLast=0;collapsible=1;marginBottom=0;swimlaneFillColor=#ffffff;align=center;rounded=1;shadow=0;comic=0;labelBackgroundColor=none;strokeWidth=1;fontFamily=Verdana;fontSize=12" vertex="1" parent="rt-RllqqKr8ouQmhF8rc-7">
          <mxGeometry x="90" y="200" width="290" height="70" as="geometry" />
        </mxCell>
        <mxCell id="rt-RllqqKr8ouQmhF8rc-31" value="en: reinicia o ptc com TMR = REACT_TIME_FREQ&lt;br&gt;" style="text;html=1;strokeColor=none;fillColor=none;spacingLeft=4;spacingRight=4;whiteSpace=wrap;overflow=hidden;rotatable=0;points=[[0,0.5],[1,0.5]];portConstraint=eastwest;" vertex="1" parent="rt-RllqqKr8ouQmhF8rc-30">
          <mxGeometry y="26" width="290" height="44" as="geometry" />
        </mxCell>
        <mxCell id="rt-RllqqKr8ouQmhF8rc-44" style="edgeStyle=orthogonalEdgeStyle;rounded=0;orthogonalLoop=1;jettySize=auto;html=1;" edge="1" parent="rt-RllqqKr8ouQmhF8rc-7" source="rt-RllqqKr8ouQmhF8rc-39" target="rt-RllqqKr8ouQmhF8rc-42">
          <mxGeometry relative="1" as="geometry" />
        </mxCell>
        <mxCell id="rt-RllqqKr8ouQmhF8rc-39" value="wait_user" style="swimlane;html=1;fontStyle=0;childLayout=stackLayout;horizontal=1;startSize=26;fillColor=#e0e0e0;horizontalStack=0;resizeParent=1;resizeLast=0;collapsible=1;marginBottom=0;swimlaneFillColor=#ffffff;align=center;rounded=1;shadow=0;comic=0;labelBackgroundColor=none;strokeWidth=1;fontFamily=Verdana;fontSize=12" vertex="1" parent="rt-RllqqKr8ouQmhF8rc-7">
          <mxGeometry x="90" y="300" width="290" height="70" as="geometry" />
        </mxCell>
        <mxCell id="rt-RllqqKr8ouQmhF8rc-40" value="du: avaliar User" style="text;html=1;strokeColor=none;fillColor=none;spacingLeft=4;spacingRight=4;whiteSpace=wrap;overflow=hidden;rotatable=0;points=[[0,0.5],[1,0.5]];portConstraint=eastwest;" vertex="1" parent="rt-RllqqKr8ouQmhF8rc-39">
          <mxGeometry y="26" width="290" height="44" as="geometry" />
        </mxCell>
        <mxCell id="rt-RllqqKr8ouQmhF8rc-48" style="edgeStyle=orthogonalEdgeStyle;rounded=0;orthogonalLoop=1;jettySize=auto;html=1;" edge="1" parent="rt-RllqqKr8ouQmhF8rc-7" source="rt-RllqqKr8ouQmhF8rc-42" target="rt-RllqqKr8ouQmhF8rc-46">
          <mxGeometry relative="1" as="geometry" />
        </mxCell>
        <mxCell id="rt-RllqqKr8ouQmhF8rc-42" value="get_result" style="swimlane;html=1;fontStyle=0;childLayout=stackLayout;horizontal=1;startSize=26;fillColor=#e0e0e0;horizontalStack=0;resizeParent=1;resizeLast=0;collapsible=1;marginBottom=0;swimlaneFillColor=#ffffff;align=center;rounded=1;shadow=0;comic=0;labelBackgroundColor=none;strokeWidth=1;fontFamily=Verdana;fontSize=12" vertex="1" parent="rt-RllqqKr8ouQmhF8rc-7">
          <mxGeometry x="90" y="400" width="290" height="70" as="geometry" />
        </mxCell>
        <mxCell id="rt-RllqqKr8ouQmhF8rc-43" value="du: r0 = sysclk_get_ticks - AVG_TIME&lt;br&gt;ex: r0 - resultado&amp;nbsp;" style="text;html=1;strokeColor=none;fillColor=none;spacingLeft=4;spacingRight=4;whiteSpace=wrap;overflow=hidden;rotatable=0;points=[[0,0.5],[1,0.5]];portConstraint=eastwest;" vertex="1" parent="rt-RllqqKr8ouQmhF8rc-42">
          <mxGeometry y="26" width="290" height="44" as="geometry" />
        </mxCell>
        <mxCell id="rt-RllqqKr8ouQmhF8rc-45" value="User = 0" style="text;html=1;strokeColor=none;fillColor=none;align=center;verticalAlign=middle;whiteSpace=wrap;rounded=0;" vertex="1" parent="rt-RllqqKr8ouQmhF8rc-7">
          <mxGeometry x="240" y="370" width="60" height="30" as="geometry" />
        </mxCell>
        <mxCell id="rt-RllqqKr8ouQmhF8rc-46" value="show_result" style="swimlane;html=1;fontStyle=0;childLayout=stackLayout;horizontal=1;startSize=26;fillColor=#e0e0e0;horizontalStack=0;resizeParent=1;resizeLast=0;collapsible=1;marginBottom=0;swimlaneFillColor=#ffffff;align=center;rounded=1;shadow=0;comic=0;labelBackgroundColor=none;strokeWidth=1;fontFamily=Verdana;fontSize=12" vertex="1" parent="rt-RllqqKr8ouQmhF8rc-7">
          <mxGeometry x="85" y="500" width="300" height="160" as="geometry" />
        </mxCell>
        <mxCell id="rt-RllqqKr8ouQmhF8rc-47" value="en: &lt;br&gt;&lt;ul&gt;&lt;li&gt;verifica se o valor em r0 estÃ¡ entre -63 e 63,&lt;/li&gt;&lt;/ul&gt;colocando-o a -64 caso nÃ£o esteja&lt;br&gt;&lt;ul&gt;&lt;li&gt;reset da variÃ¡vel sysclk (reset_sysclk)&lt;/li&gt;&lt;li&gt;reinicia o ptc de maneira a contar 5 segundos (ptc_init e delay_result)&lt;/li&gt;&lt;/ul&gt;" style="text;html=1;strokeColor=none;fillColor=none;spacingLeft=4;spacingRight=4;whiteSpace=wrap;overflow=hidden;rotatable=0;points=[[0,0.5],[1,0.5]];portConstraint=eastwest;" vertex="1" parent="rt-RllqqKr8ouQmhF8rc-46">
          <mxGeometry y="26" width="300" height="134" as="geometry" />
        </mxCell>
        <mxCell id="rt-RllqqKr8ouQmhF8rc-16" value="" style="endArrow=classic;html=1;rounded=0;" edge="1" parent="1" source="rt-RllqqKr8ouQmhF8rc-17" target="rt-RllqqKr8ouQmhF8rc-14">
          <mxGeometry width="50" height="50" relative="1" as="geometry">
            <mxPoint x="230" y="660" as="sourcePoint" />
            <mxPoint x="320" y="530" as="targetPoint" />
          </mxGeometry>
        </mxCell>
        <mxCell id="rt-RllqqKr8ouQmhF8rc-17" value="" style="shape=waypoint;sketch=0;size=6;pointerEvents=1;points=[];fillColor=none;resizable=0;rotatable=0;perimeter=centerPerimeter;snapToPoint=1;" vertex="1" parent="1">
          <mxGeometry x="335" y="657" width="20" height="20" as="geometry" />
        </mxCell>
        <mxCell id="rt-RllqqKr8ouQmhF8rc-21" value="" style="edgeStyle=orthogonalEdgeStyle;rounded=0;orthogonalLoop=1;jettySize=auto;html=1;" edge="1" parent="1" target="rt-RllqqKr8ouQmhF8rc-19">
          <mxGeometry relative="1" as="geometry">
            <mxPoint x="80" y="110" as="sourcePoint" />
            <mxPoint x="80" y="130" as="targetPoint" />
          </mxGeometry>
        </mxCell>
        <mxCell id="rt-RllqqKr8ouQmhF8rc-22" style="edgeStyle=orthogonalEdgeStyle;rounded=0;orthogonalLoop=1;jettySize=auto;html=1;" edge="1" parent="1" source="rt-RllqqKr8ouQmhF8rc-19">
          <mxGeometry relative="1" as="geometry">
            <mxPoint x="110" y="110" as="targetPoint" />
          </mxGeometry>
        </mxCell>
        <mxCell id="rt-RllqqKr8ouQmhF8rc-19" value="" style="shape=waypoint;sketch=0;size=6;pointerEvents=1;points=[];fillColor=none;resizable=0;rotatable=0;perimeter=centerPerimeter;snapToPoint=1;" vertex="1" parent="1">
          <mxGeometry x="70" y="100" width="20" height="20" as="geometry" />
        </mxCell>
        <mxCell id="rt-RllqqKr8ouQmhF8rc-28" style="edgeStyle=orthogonalEdgeStyle;rounded=0;orthogonalLoop=1;jettySize=auto;html=1;entryX=0.412;entryY=1.34;entryDx=0;entryDy=0;entryPerimeter=0;" edge="1" parent="1" source="rt-RllqqKr8ouQmhF8rc-15" target="rt-RllqqKr8ouQmhF8rc-19">
          <mxGeometry relative="1" as="geometry" />
        </mxCell>
        <mxCell id="rt-RllqqKr8ouQmhF8rc-29" value="User = 0" style="text;html=1;strokeColor=none;fillColor=none;align=center;verticalAlign=middle;whiteSpace=wrap;rounded=0;" vertex="1" parent="1">
          <mxGeometry x="10" y="670" width="60" height="30" as="geometry" />
        </mxCell>
        <mxCell id="rt-RllqqKr8ouQmhF8rc-49" style="edgeStyle=orthogonalEdgeStyle;rounded=0;orthogonalLoop=1;jettySize=auto;html=1;entryX=0.45;entryY=0.75;entryDx=0;entryDy=0;entryPerimeter=0;" edge="1" parent="1" source="rt-RllqqKr8ouQmhF8rc-46" target="rt-RllqqKr8ouQmhF8rc-19">
          <mxGeometry relative="1" as="geometry" />
        </mxCell>
      </root>
    </mxGraphModel>
  </diagram>
</mxfile>
